<svg width="32px" height="32px" viewBox="0 0 32 32" version="1.1" xmlns="http://www.w3.org/2000/svg" fill="#bbc5ba">
    <title>Pinterest</title>
    <g stroke="none" stroke-width="1" fill-rule="evenodd">
        <g>
            <path d="M16.000588,6 C10.4781561,6 6,10.4769801 6,16.000588 C6,20.0941965 8.46251543,23.6127477 11.9869466,25.1591698 C11.9587229,24.4618098 11.9822426,23.6221556 12.1598165,22.8624684 C12.3526783,22.0510378 13.4463456,17.4141236 13.4463456,17.4141236 C13.4463456,17.4141236 13.1276533,16.775563 13.1276533,15.831246 C13.1276533,14.3495031 13.9872993,13.2429 15.0562709,13.2429 C15.9653084,13.2429 16.4051273,13.9261481 16.4051273,14.7446346 C16.4051273,15.658376 15.8218381,17.0260481 15.5219615,18.2925854 C15.2714765,19.3545011 16.0535074,20.2188511 17.1001352,20.2188511 C18.9946493,20.2188511 20.2705945,17.7857353 20.2705945,14.9022167 C20.2705945,12.7113541 18.7947316,11.0708532 16.1099547,11.0708532 C13.0770859,11.0708532 11.1872758,13.3322749 11.1872758,15.8582936 C11.1872758,16.7308755 11.4436409,17.3447404 11.8458282,17.8198389 C12.031634,18.0397483 12.0563297,18.1267713 11.9892985,18.3784324 C11.9422591,18.5607103 11.8317164,19.0052331 11.7858529,19.1804551 C11.7188217,19.4332922 11.5142,19.5250191 11.2860587,19.4309402 C9.8878109,18.8605868 9.23749045,17.3306286 9.23749045,15.6101605 C9.23749045,12.7701535 11.6329747,9.362145 16.3839595,9.362145 C20.2023873,9.362145 22.7154701,12.1268889 22.7154701,15.0915505 C22.7154701,19.014641 20.5351914,21.945199 17.3188687,21.945199 C16.2404892,21.945199 15.224437,21.3619098 14.876345,20.6998295 C14.876345,20.6998295 14.2954078,23.0035868 14.1731052,23.4481096 C13.9614276,24.2183807 13.5463045,24.9898277 13.1664609,25.5895808 C14.0660904,25.8553537 15.0162874,26 16.000588,26 C21.5230199,26 26,21.5230199 26,16.000588 C26,10.4769801 21.5230199,6 16.000588,6"></path>
        </g>
    </g>
</svg>
