<svg width="32px" height="32px" viewBox="0 0 32 32" version="1.1" xmlns="http://www.w3.org/2000/svg" fill="#bbc5ba">
    <title>Youtube</title>
    <g stroke="none" stroke-width="1" fill-rule="evenodd">
        <g>
            <path d="M13.9611333,18.5297611 L13.960375,11.6055153 L20.516925,15.0795752 L13.9611333,18.5297611 Z M28.3573333,10.4056516 C28.3573333,10.4056516 28.119975,8.70751322 27.3927333,7.95971624 C26.4698417,6.9777995 25.435475,6.97317871 24.9615167,6.91618904 C21.5657,6.66666667 16.471975,6.66666667 16.471975,6.66666667 L16.4613583,6.66666667 C16.4613583,6.66666667 11.3676333,6.66666667 7.97181667,6.91618904 C7.4971,6.97317871 6.46349167,6.9777995 5.53984167,7.95971624 C4.8126,8.70751322 4.576,10.4056516 4.576,10.4056516 C4.576,10.4056516 4.33333333,12.4002903 4.33333333,14.3941589 L4.33333333,16.2640364 C4.33333333,18.2586751 4.576,20.2525437 4.576,20.2525437 C4.576,20.2525437 4.8126,21.950682 5.53984167,22.698479 C6.46349167,23.6803957 7.67606667,23.6495905 8.216,23.7520179 C10.1573333,23.9414701 16.4666667,24 16.4666667,24 C16.4666667,24 21.5657,23.9922987 24.9615167,23.7427763 C25.435475,23.6850165 26.4698417,23.6803957 27.3927333,22.698479 C28.119975,21.950682 28.3573333,20.2525437 28.3573333,20.2525437 C28.3573333,20.2525437 28.6,18.2586751 28.6,16.2640364 L28.6,14.3941589 C28.6,12.4002903 28.3573333,10.4056516 28.3573333,10.4056516 L28.3573333,10.4056516 Z"></path>
        </g>
    </g>
</svg>